<?xml version="1.0" encoding="UTF-8"?>
<svg id="Layer_1" data-name="Layer 1" xmlns="http://www.w3.org/2000/svg" viewBox="0 0 56.69 56.69">
  <defs>
    <style>
      .cls-1 {
        stroke-width: 1.5px;
      }

      .cls-1, .cls-2 {
        fill: none;
        stroke: #d4e0d2;
        stroke-miterlimit: 10;
      }

      .cls-3 {
        fill: #40573f;
      }

      .cls-3, .cls-4 {
        stroke-width: 0px;
      }

      .cls-4 {
        fill: #d4e0d2;
      }
    </style>
  </defs>
  <rect class="cls-3" y="0" width="56.69" height="56.69"/>
  <g>
    <path class="cls-4" d="m50.79,6.02v16.58h-16.58V6.02h16.58m4-4h-24.58v24.58h24.58V2.02h0Z"/>
    <path class="cls-4" d="m22.49,34.09v16.58H5.91v-16.58h16.58m4-4H1.91v24.58h24.58v-24.58h0Z"/>
    <g>
      <path class="cls-4" d="m34.35,50.52v2.15h-2.15v-2.15h2.15m2-2h-6.15v6.15h6.15v-6.15h0Z"/>
      <path class="cls-4" d="m40.5,44.38v2.15h-2.15v-2.15h2.15m2-2h-6.15v6.15h6.15v-6.15h0Z"/>
      <path class="cls-4" d="m46.64,38.23v2.15h-2.15v-2.15h2.15m2-2h-6.15v6.15h6.15v-6.15h0Z"/>
      <path class="cls-4" d="m52.79,32.09v2.15h-2.15v-2.15h2.15m2-2h-6.15v6.15h6.15v-6.15h0Z"/>
      <path class="cls-4" d="m46.64,50.52v2.15h-2.15v-2.15h2.15m2-2h-6.15v6.15h6.15v-6.15h0Z"/>
      <path class="cls-4" d="m52.79,44.38v2.15h-2.15v-2.15h2.15m2-2h-6.15v6.15h6.15v-6.15h0Z"/>
      <path class="cls-4" d="m34.35,38.23v2.15h-2.15v-2.15h2.15m2-2h-6.15v6.15h6.15v-6.15h0Z"/>
      <path class="cls-4" d="m40.5,32.09v2.15h-2.15v-2.15h2.15m2-2h-6.15v6.15h6.15v-6.15h0Z"/>
    </g>
    <g>
      <path class="cls-4" d="m4.87,17.49c.13,1.87.78,3.64,1.9,5.18-2.16-.26-3.85-1.46-3.85-2.85,0-.92.76-1.79,1.96-2.33m1-1.37c-2.29.5-3.96,1.98-3.96,3.71,0,2.16,2.57,3.9,5.74,3.9.45,0,.88-.03,1.3-.1-1.93-1.76-3.1-4.16-3.1-6.82,0-.23.01-.46.02-.69h0Z"/>
      <path class="cls-4" d="m24.92,15.79c.05.34.07.68.07,1.02,0,2.59-1.38,5.02-3.72,6.59h-11.33c-.39-.26-.75-.55-1.1-.88-1.69-1.54-2.61-3.57-2.61-5.71,0-.2,0-.39.02-.59.01-.14.03-.29.05-.43h18.62m1.21-1.5H5.09c-.18.59-.29,1.2-.34,1.83-.01.23-.02.46-.02.69,0,2.65,1.18,5.06,3.1,6.82.51.48,1.07.91,1.68,1.27h12.2c2.88-1.76,4.78-4.73,4.78-8.09,0-.87-.12-1.72-.36-2.52h0Z"/>
      <path class="cls-1" d="m16.52,11.32c-1.57-.45-2.83-1.43-2.93-2.48-.15-1.55,4.79-1.82,4.97-3.44.06-.57-.42-1.49-3.29-2.86"/>
      <path class="cls-1" d="m21.8,11.32c-1.57-.45-2.83-1.43-2.93-2.48-.15-1.55,4.79-1.82,4.97-3.44.06-.57-.42-1.49-3.29-2.86"/>
      <path class="cls-1" d="m11.24,11.32c-1.57-.45-2.83-1.43-2.93-2.48-.15-1.55,4.79-1.82,4.97-3.44.06-.57-.42-1.49-3.29-2.86"/>
    </g>
    <line class="cls-2" x1="26.49" y1="26.6" x2="1.91" y2="26.6"/>
  </g>
</svg>